# xmcd CD database file
#
# Track frame offsets:
#	151
#	23084
#	58868
#	92642
#	127663
#	159989
#
# Disc length: 2518 seconds
#
# Revision: 0
# Processed by: cddbd v1.4PL0 Copyright (c) Steve Scherf et al.
# Submitted via: CDex 1.51
#
DISCID=3d09d406
DTITLE=Dizzy Reece - Soundin' Off
DYEAR=1960
DGENRE=Jazz
TTITLE0=A Ghost of a Chance
TTITLE1=Once in a While
TTITLE2=Eb Pob
TTITLE3=Yesterdays
TTITLE4=Our Love is Here to Stay
TTITLE5=Blue Streak
EXTD=YEAR: 1960
EXTT0=
EXTT1=
EXTT2=
EXTT3=
EXTT4=
EXTT5=
PLAYORDER=
